<svg xmlns="http://www.w3.org/2000/svg" viewBox="0 0 900 900"><defs><style>.a{fill:#16171d;}.b{fill:#242731;}</style></defs><title>unnamed</title><rect class="a" width="900" height="900"/><path class="b" d="M450,351.5A98.5,98.5,0,1,0,548.5,450,98.5,98.5,0,0,0,450,351.5Zm0,166.25A67.75,67.75,0,1,1,517.75,450,67.75,67.75,0,0,1,450,517.75Z"/><path class="b" d="M450,90.75C251.5917,90.75,90.75,251.5917,90.75,450S251.5917,809.25,450,809.25,809.25,648.4083,809.25,450,648.4083,90.75,450,90.75Zm0,482.7188A123.4688,123.4688,0,1,1,573.4688,450,123.4688,123.4688,0,0,1,450,573.4688Z"/></svg>
