<svg width="2560" height="951" viewBox="0 0 2560 951" fill="none" xmlns="http://www.w3.org/2000/svg">
<rect width="2560" height="951" fill="#2C2C2C"/>
<path fill-rule="evenodd" clip-rule="evenodd" d="M0 337L61 375C122 413 244 490 366 465C488 439 610 311 731 362C853 413 975 644 1097 746C1219 849 1341 823 1463 746C1585 669 1707 541 1829 529C1950 516 2072 618 2194 631C2316 644 2438 567 2499 529L2560 490V951H2499C2438 951 2316 951 2194 951C2072 951 1950 951 1829 951C1707 951 1585 951 1463 951C1341 951 1219 951 1097 951C975 951 853 951 731 951C610 951 488 951 366 951C244 951 122 951 61 951H0V337Z" fill="#333333"/>
<style id="stylish-2" class="stylish" type="text/css">.emoji {
 display: none;   
}</style></svg>